<?xml version="1.0" encoding="UTF-8"?>
<svg width="268px" height="144px" viewBox="0 0 268 144" version="1.1" xmlns="http://www.w3.org/2000/svg" xmlns:xlink="http://www.w3.org/1999/xlink">
    <!-- Generator: Sketch 51.3 (57544) - http://www.bohemiancoding.com/sketch -->
    <title>Error-page-icon@1x</title>
    <desc>Created with Sketch.</desc>
    <defs></defs>
    <g id="System-Pages" stroke="none" stroke-width="1" fill="none" fill-rule="evenodd">
        <g id="Error-404" transform="translate(-826.000000, -240.000000)">
            <g id="Error-page/404" transform="translate(826.000000, 240.000000)">
                <g id="Error-page-icon">
                    <g id="Group-21" fill="#1E86E3">
                        <path d="M261.755679,108.101509 L238.167072,108.101509 C236.558045,108.101509 235.253558,106.214477 235.253558,103.886633 C235.253558,101.558971 236.558045,99.6719388 238.167072,99.6719388 L245.653396,99.6719388 C245.17455,98.920845 244.881668,97.9178066 244.881668,96.8155946 C244.881668,94.4877506 246.186156,92.6007185 247.795182,92.6007185 L260.725677,92.6007185 C260.573225,87.3357695 259.937738,82.5021525 257.49196,77.9124587 C255.538871,74.2474124 253.028616,71.4842257 250.346966,69.0537444 L231.088741,69.0537444 C229.479715,69.0537444 228.175227,67.1667123 228.175227,64.8388683 C228.175227,64.1707229 228.283236,63.5395853 228.474301,62.978088 L201.490965,62.978088 C199.881939,62.978088 198.577451,61.0912382 198.577451,58.7633942 C198.577451,56.4355502 199.881939,54.5485181 201.490965,54.5485181 L238.500934,54.5485181 C238.534995,53.9323295 238.615683,53.2641841 238.74737,52.5349668 C240.166424,44.6698111 240.821218,40.0070133 235.604177,34.3470107 C229.985336,28.2509363 222.488629,25.4768113 215.795342,23.1156056 C203.869169,18.9080217 191.593287,16.7269327 179.392446,15.0147304 C140.01083,9.48781006 98.3058335,-10.3087994 60.7942501,6.94575849 L75.6949543,6.94575849 C77.3039805,6.94575849 78.6084683,8.83297291 78.6084683,11.1608169 C78.6084683,13.1543147 77.6513217,14.8234932 76.3657765,15.2619351 L84.0834193,15.2619351 C85.6926276,15.2619351 86.9969332,17.1489672 86.9969332,19.4768112 C86.9969332,21.8044729 85.6926276,23.691505 84.0834193,23.691505 L47.7193189,23.691505 C45.5944718,25.1140257 43.2692706,26.0494292 40.9859615,26.9361574 C33.858635,29.7037195 24.2052066,30.473773 18.2601519,37.3843832 C12.9119704,43.6007785 17.3150266,51.8744782 20.6695019,58.0195925 L54.1004172,58.0195925 C55.7094433,58.0195925 57.0139312,59.9066246 57.0139312,62.2342863 C57.0139312,64.5621303 55.7094433,66.4491624 54.1004172,66.4491624 L45.950738,66.4491624 C46.5847678,67.2223151 46.987844,68.3790361 46.987844,69.6726676 C46.987844,72.0003293 45.6835383,73.8873614 44.0743301,73.8873614 L27.2755433,73.8873614 C27.5806281,76.6448967 27.1939445,79.4356113 25.6202535,82.1342623 C20.439641,91.01777 10.5295772,92.7168464 3.90167896,98.5586063 C0.163070083,101.853757 -0.552194317,105.006528 0.353224408,107.845553 L47.9295086,107.845553 C49.5387169,107.845553 50.8430226,109.732403 50.8430226,112.060247 C50.8430226,113.580483 50.2865844,114.912216 49.4523825,115.65383 L57.0931621,115.65383 C58.7021883,115.65383 60.0066761,117.540498 60.0066761,119.868524 C60.0066761,122.196186 58.7021883,124.083218 57.0931621,124.083218 L23.460982,124.083218 C41.5955846,131.549127 60.9437872,134.77008 79.4484987,137.182513 C102.328217,140.165012 125.40155,140.545116 148.259411,136.973957 C163.612187,134.575379 178.788652,130.213748 194.181316,128.307391 C209.110981,126.458279 224.084905,126.83419 239.048448,127.272632 C245.127922,127.450926 251.230528,127.744618 257.309456,127.379645 C259.582565,127.243281 264.092355,127.733862 266.045808,125.535819 C269.095199,122.10394 265.557308,118.042746 263.944822,114.53831 C262.95234,112.381832 262.246547,110.268196 261.755679,108.101509" id="Fill-1" opacity="0.1"></path>
                        <path d="M236.143476,32.2705644 L231.702535,32.2705644 L231.702535,27.825438 C231.702535,26.7139285 230.802398,25.8126159 229.691343,25.8126159 C228.580835,25.8126159 227.680334,26.7139285 227.680334,27.825438 L227.680334,32.2705644 L223.239392,32.2705644 C222.128702,32.2705644 221.228383,33.1716947 221.228383,34.2833865 C221.228383,35.3950783 222.128702,36.2962086 223.239392,36.2962086 L227.680334,36.2962086 L227.680334,40.7411528 C227.680334,41.8528446 228.580835,42.7539749 229.691343,42.7539749 C230.802398,42.7539749 231.702535,41.8528446 231.702535,40.7411528 L231.702535,36.2962086 L236.143476,36.2962086 C237.254167,36.2962086 238.154486,35.3950783 238.154486,34.2833865 C238.154486,33.1716947 237.254167,32.2705644 236.143476,32.2705644" id="Fill-4"></path>
                        <path d="M33.2314354,93.9063456 L35.3945319,91.7412994 C35.9356703,91.1996733 35.9356703,90.3218779 35.3945319,89.7802517 C34.8535756,89.2388079 33.9765708,89.2388079 33.4354324,89.7804341 L31.2723358,91.9454803 L29.108875,89.7800694 C28.5679188,89.2388079 27.6907318,89.2386256 27.1495934,89.7802517 C26.6086371,90.3218779 26.6086371,91.1998556 27.1495934,91.7412994 L29.312872,93.9065279 L27.1495934,96.0715742 C26.6086371,96.6133826 26.6086371,97.491178 27.1495934,98.0328041 C27.6907318,98.5740657 28.5677366,98.5740657 29.108875,98.0326218 L31.2721537,95.8675756 L33.4354324,98.0328041 C33.9763886,98.5740657 34.8535756,98.574248 35.3945319,98.0328041 C35.9356703,97.491178 35.9356703,96.6132003 35.394714,96.0715742 L33.2314354,93.9063456 Z" id="Fill-6"></path>
                        <path d="M236.056304,138.960254 L233.546595,138.065322 L234.440539,135.553168 C234.664207,134.9244 234.336719,134.233649 233.708699,134.009962 C233.080862,133.78591 232.390915,134.113875 232.167065,134.742461 L231.273121,137.254614 L228.763048,136.359682 C228.135211,136.135995 227.445264,136.463596 227.221413,137.092181 C226.997745,137.720584 227.325233,138.411153 227.953435,138.635205 L230.463144,139.529955 L229.5692,142.042291 C229.34535,142.670876 229.672838,143.361627 230.300675,143.585497 C230.928694,143.809367 231.618823,143.481401 231.842491,142.852816 L232.736435,140.340662 L235.246691,141.235412 C235.874528,141.459464 236.564657,141.131498 236.788325,140.503278 C237.011811,139.874692 236.684323,139.184123 236.056304,138.960254" id="Fill-8"></path>
                        <path d="M43.6844773,41.5870449 C41.8922181,41.5870449 40.4338219,40.1275164 40.4338219,38.3334595 C40.4338219,36.5395849 41.8922181,35.0800564 43.6844773,35.0800564 C45.4769186,35.0800564 46.9351327,36.5395849 46.9351327,38.3334595 C46.9351327,40.1275164 45.4769186,41.5870449 43.6844773,41.5870449 M43.6844773,32.1219864 C40.2626101,32.1219864 37.4785978,34.9085081 37.4785978,38.3334595 C37.4785978,41.7585933 40.2626101,44.5451149 43.6844773,44.5451149 C47.1065265,44.5451149 49.8905389,41.7585933 49.8905389,38.3334595 C49.8905389,34.9085081 47.1065265,32.1219864 43.6844773,32.1219864" id="Fill-11"></path>
                        <path d="M206.370846,60.2750252 C205.148868,60.2750252 204.154565,59.2800082 204.154565,58.0567462 C204.154565,56.8334841 205.148868,55.8384671 206.370846,55.8384671 C207.593006,55.8384671 208.587127,56.8334841 208.587127,58.0567462 C208.587127,59.2800082 207.593006,60.2750252 206.370846,60.2750252 M206.370846,53.8216343 C204.037813,53.8216343 202.139548,55.7214277 202.139548,58.0567462 C202.139548,60.3918823 204.037813,62.291858 206.370846,62.291858 C208.704061,62.291858 210.602144,60.3918823 210.602144,58.0567462 C210.602144,55.7214277 208.704061,53.8216343 206.370846,53.8216343" id="Fill-13"></path>
                        <path d="M20.1281814,138.286949 C18.906203,138.286949 17.9120821,137.291932 17.9120821,136.06867 C17.9120821,134.84559 18.906203,133.850391 20.1281814,133.850391 C21.3503418,133.850391 22.3444628,134.84559 22.3444628,136.06867 C22.3444628,137.291932 21.3503418,138.286949 20.1281814,138.286949 M20.1281814,131.833376 C17.7951481,131.833376 15.8968833,133.733352 15.8968833,136.06867 C15.8968833,138.403806 17.7951481,140.303782 20.1281814,140.303782 C22.4612146,140.303782 24.3594794,138.403806 24.3594794,136.06867 C24.3594794,133.733352 22.4612146,131.833376 20.1281814,131.833376" id="Fill-15"></path>
                        <path d="M221.243009,93.0079134 C220.591129,93.0079134 220.060919,92.4772255 220.060919,91.8247583 C220.060919,91.1724735 220.591129,90.6417856 221.243009,90.6417856 C221.894706,90.6417856 222.424916,91.1724735 222.424916,91.8247583 C222.424916,92.4772255 221.894706,93.0079134 221.243009,93.0079134 M221.243009,89.5660077 C219.998627,89.5660077 218.98611,90.5794375 218.98611,91.8247583 C218.98611,93.0702615 219.998627,94.083509 221.243009,94.083509 C222.487208,94.083509 223.499907,93.0702615 223.499907,91.8247583 C223.499907,90.5794375 222.487208,89.5660077 221.243009,89.5660077" id="Fill-17"></path>
                        <path d="M22.702605,60.7176055 C22.0507254,60.7176055 21.5206975,60.1869176 21.5206975,59.5344504 C21.5206975,58.8821655 22.0507254,58.3514776 22.702605,58.3514776 C23.3544846,58.3514776 23.8846946,58.8821655 23.8846946,59.5344504 C23.8846946,60.1869176 23.3544846,60.7176055 22.702605,60.7176055 M22.702605,57.2756997 C21.4582234,57.2756997 20.4457063,58.2891295 20.4457063,59.5344504 C20.4457063,60.7799535 21.4582234,61.793201 22.702605,61.793201 C23.9469865,61.793201 24.9595037,60.7799535 24.9595037,59.5344504 C24.9595037,58.2891295 23.9469865,57.2756997 22.702605,57.2756997" id="Fill-19"></path>
                    </g>
                    <g id="Group-48" transform="translate(74.000000, 18.000000)">
                        <path d="M116.234164,11.5004637 L46.7790334,11.5004637 L46.7790334,4.43313152 C46.7790334,2.37799896 45.1033212,0.712107061 43.0360738,0.712107061 L4.4925012,0.712107061 C2.42525377,0.712107061 0.749541549,2.37799896 0.749541549,4.43313152 L0.749541549,15.217131 C0.749541549,15.2185834 0.749541549,15.2200357 0.749541549,15.2214881 L0.749541549,108.450979 C0.749541549,110.50593 2.42525377,112.172003 4.4925012,112.172003 L116.234164,112.172003 C118.301412,112.172003 119.977124,110.50593 119.977124,108.450979 L119.977124,15.2214881 C119.977124,13.1663556 118.301412,11.5004637 116.234164,11.5004637" id="Fill-22" fill="#1E86E3"></path>
                        <path d="M1.44776715,15.2265533 L1.44776715,108.450961 C1.44776715,110.119939 2.81357488,111.477924 4.49239163,111.477924 L116.234237,111.477924 C117.913237,111.477924 119.279044,110.119939 119.279044,108.450961 L119.279044,15.22147 C119.279044,13.5524917 117.913237,12.1945066 116.234237,12.1945066 L46.7791065,12.1945066 C46.3934151,12.1945066 46.0809539,11.8836951 46.0809539,11.5004455 L46.0809539,4.43311336 C46.0809539,2.76413513 44.7149636,1.40615002 43.0361468,1.40615002 L4.49257425,1.40615002 C2.81357488,1.40615002 1.44776715,2.76413513 1.44776715,4.43311336 L1.44776715,15.2171128 L1.44776715,15.2265533 Z M116.234237,112.866046 L4.49239163,112.866046 C2.04365305,112.866046 0.0512794238,110.88553 0.0512794238,108.450961 L0.0512794238,15.22147 L0.0512794238,15.212211 L0.0512794238,4.43311336 C0.0512794238,1.99872534 2.04365305,0.0180277971 4.49257425,0.0180277971 L43.0361468,0.0180277971 C45.485068,0.0180277971 47.4774417,1.99872534 47.4774417,4.43311336 L47.4774417,10.8062029 L116.234237,10.8062029 C118.683158,10.8062029 120.675532,12.7869004 120.675532,15.22147 L120.675532,108.450961 C120.675532,110.88553 118.683158,112.866046 116.234237,112.866046 Z" id="Fill-24" fill="#1E86E3"></path>
                        <path d="M0.749486763,21.098786 L0.749486763,108.450997 C0.749486763,110.505948 2.42519899,112.172021 4.49244641,112.172021 L116.234109,112.172021 C118.301539,112.172021 119.977069,110.505948 119.977069,108.450997 L119.977069,21.098786 L0.749486763,21.098786 Z" id="Fill-26" fill="#FFFFFF"></path>
                        <path d="M1.44776715,21.7929742 L1.44776715,108.450943 C1.44776715,110.120102 2.81357488,111.477906 4.49239163,111.477906 L116.234237,111.477906 C117.913237,111.477906 119.279044,110.120102 119.279044,108.450943 L119.279044,21.7929742 L1.44776715,21.7929742 Z M116.234237,112.86621 L4.49239163,112.86621 C2.04365305,112.86621 0.0512794238,110.885512 0.0512794238,108.450943 L0.0512794238,20.4046704 L120.675532,20.4046704 L120.675532,108.450943 C120.675532,110.885512 118.683158,112.86621 116.234237,112.86621 Z" id="Fill-28" fill="#1E86E3"></path>
                        <path d="M71.136358,68.9887665 L90.4832007,73.2326515 L89.559331,82.1672132 L87.3096472,86.2624098 L82.4419369,88.7939264 L77.8264235,88.7939264 C77.6481874,88.7939264 73.725348,86.5601498 73.725348,86.5601498 L71.6570048,82.4651348 L71.136358,77.9233282 L71.136358,68.9887665 Z" id="Fill-30" fill="#FAFBFC"></path>
                        <path d="M36.487264,54.597374 C36.1906907,54.8923908 35.7100375,54.8923908 35.4130989,54.597374 L25.281943,44.525409 C24.9853696,44.2307553 24.9853696,43.7527373 25.281943,43.4577204 C25.5785163,43.1628852 26.0593522,43.1628852 26.3559255,43.4577204 L36.487264,53.5296854 C36.78402,53.8247023 36.78402,54.3025387 36.487264,54.597374" id="Fill-32" fill="#1E86E3"></path>
                        <path d="M25.2818699,54.597374 C24.9852966,54.3025387 24.9852966,53.8243392 25.2818699,53.5296854 L35.4132085,43.4577204 C35.710147,43.1628852 36.1906177,43.1628852 36.487191,43.4577204 C36.7839469,43.7527373 36.7839469,44.2307553 36.487191,44.525409 L26.3558524,54.597374 C26.0592791,54.8923908 25.5784432,54.8923908 25.2818699,54.597374" id="Fill-34" fill="#1E86E3"></path>
                        <path d="M93.0511895,54.597374 C92.7544336,54.8923908 92.2735977,54.8923908 91.977207,54.597374 L81.8455032,44.525409 C81.5492951,44.2307553 81.5492951,43.7527373 81.8455032,43.4577204 C82.1422591,43.1628852 82.623095,43.1628852 82.9198509,43.4577204 L93.0511895,53.5296854 C93.3479454,53.8247023 93.3479454,54.3025387 93.0511895,54.597374" id="Fill-36" fill="#1E86E3"></path>
                        <path d="M81.8454301,54.597374 C81.5492221,54.3025387 81.5492221,53.8243392 81.8454301,53.5296854 L91.9771339,43.4577204 C92.2737072,43.1628852 92.7543605,43.1628852 93.0511165,43.4577204 C93.3482376,43.7527373 93.3478724,44.2307553 93.0511165,44.525409 L82.9199605,54.597374 C82.6232046,54.8923908 82.1421861,54.8923908 81.8454301,54.597374" id="Fill-38" fill="#1E86E3"></path>
                        <path d="M95.8555604,75.9496748 C95.7571287,75.9498563 95.6579666,75.931883 95.5611785,75.8939393 C73.4167949,67.1775992 49.025284,67.1774177 26.8805352,75.8939393 C26.4692771,76.0556993 26.0050595,75.8554509 25.842346,75.4473292 C25.679815,75.0386628 25.8810612,74.5768026 26.2915888,74.4154057 C37.4587425,70.0197459 49.2104597,67.7912342 61.2207655,67.7912342 C73.2310713,67.7912342 84.9831538,70.0197459 96.1497596,74.4154057 C96.5606525,74.5768026 96.7620813,75.0386628 96.5993677,75.4473292 C96.4748215,75.7594116 96.1736827,75.9496748 95.8555604,75.9496748" id="Fill-40" fill="#1E86E3"></path>
                        <path d="M80.3342029,89.9080007 C74.7024146,89.9080007 70.1201379,85.3533041 70.1201379,79.7541572 L70.1201379,69.3183684 C70.1201379,68.8792018 70.4784364,68.5233661 70.9201918,68.5233661 C71.3621299,68.5233661 71.7202458,68.8792018 71.7202458,69.3183684 L71.7202458,79.7541572 C71.7202458,84.4762418 75.5844645,88.3179962 80.3342029,88.3179962 C85.0846717,88.3179962 88.9485252,84.4762418 88.9485252,79.7541572 L88.9485252,73.2109565 C88.9485252,72.772153 89.3068237,72.4159542 89.7483965,72.4159542 C90.1903346,72.4159542 90.5484505,72.772153 90.5484505,73.2109565 L90.5484505,79.7541572 C90.5484505,85.3533041 85.966539,89.9080007 80.3342029,89.9080007" id="Fill-42" fill="#1E86E3"></path>
                        <path d="M80.3342029,82.8405415 C79.8924474,82.8405415 79.5345141,82.4845242 79.5345141,82.0455392 L79.5345141,70.7374084 C79.5345141,70.2982418 79.8924474,69.9424061 80.3342029,69.9424061 C80.7757757,69.9424061 81.1342568,70.2982418 81.1342568,70.7374084 L81.1342568,82.0455392 C81.1342568,82.4845242 80.7757757,82.8405415 80.3342029,82.8405415" id="Fill-44" fill="#1E86E3"></path>
                        <path d="M12.7542775,10.199031 L14.2658152,8.69653305 C14.6440192,8.32054546 14.6440192,7.71126764 14.2658152,7.3354616 C13.8879764,6.95965556 13.2751069,6.95965556 12.8969029,7.3354616 L11.3853652,8.83814112 L9.87364486,7.3354616 C9.49562347,6.95965556 8.882754,6.95947401 8.50454999,7.3354616 C8.1265286,7.71126764 8.1265286,8.32072701 8.50454999,8.69653305 L10.0160877,10.1992126 L8.50454999,11.7017105 C8.1265286,12.0778797 8.1265286,12.6871575 8.50454999,13.062782 C8.882754,13.4387696 9.49562347,13.4387696 9.87364486,13.062782 L11.3851826,11.560284 L12.8969029,13.0629635 C13.2749243,13.4387696 13.8877938,13.4387696 14.2658152,13.062782 C14.6440192,12.6869759 14.6440192,12.0776981 14.2659978,11.7017105 L12.7542775,10.199031 Z M11.460239,14.7019862 C8.90722495,14.7019862 6.82993348,12.63705 6.82993348,10.0988161 C6.82993348,7.56058213 8.90722495,5.49546439 11.460239,5.49546439 C14.0134357,5.49546439 16.0907271,7.56058213 16.0907271,10.0988161 C16.0907271,12.63705 14.0134357,14.7019862 11.460239,14.7019862 Z M11.460239,3.744063 C7.93569171,3.744063 5.06820769,6.59474245 5.06820769,10.0988161 C5.06820769,13.6028897 7.93569171,16.4535691 11.460239,16.4535691 C14.9849689,16.4535691 17.8524529,13.6028897 17.8524529,10.0988161 C17.8524529,6.59474245 14.9849689,3.744063 11.460239,3.744063 Z" id="Fill-46" fill="#FFFFFF"></path>
                    </g>
                </g>
            </g>
        </g>
    </g>
</svg>