<?xml version="1.0" encoding="UTF-8"?>
<svg width="268px" height="140px" viewBox="0 0 268 140" version="1.1" xmlns="http://www.w3.org/2000/svg" xmlns:xlink="http://www.w3.org/1999/xlink">
    <!-- Generator: Sketch 51.3 (57544) - http://www.bohemiancoding.com/sketch -->
    <title>unauthorised-page-icon@1x</title>
    <desc>Created with Sketch.</desc>
    <defs></defs>
    <g id="System-Pages" stroke="none" stroke-width="1" fill="none" fill-rule="evenodd">
        <g id="Error-401" transform="translate(-827.000000, -240.000000)">
            <g id="Error-page/401" transform="translate(827.000000, 240.000000)">
                <g id="Error-page-icon" fill="#1E86E3">
                    <g id="Group-21">
                        <path d="M261.755679,108.101509 L238.167072,108.101509 C236.558045,108.101509 235.253558,106.214477 235.253558,103.886633 C235.253558,101.558971 236.558045,99.6719388 238.167072,99.6719388 L245.653396,99.6719388 C245.17455,98.920845 244.881668,97.9178066 244.881668,96.8155946 C244.881668,94.4877506 246.186156,92.6007185 247.795182,92.6007185 L260.725677,92.6007185 C260.573225,87.3357695 259.937738,82.5021525 257.49196,77.9124587 C255.538871,74.2474124 253.028616,71.4842257 250.346966,69.0537444 L231.088741,69.0537444 C229.479715,69.0537444 228.175227,67.1667123 228.175227,64.8388683 C228.175227,64.1707229 228.283236,63.5395853 228.474301,62.978088 L201.490965,62.978088 C199.881939,62.978088 198.577451,61.0912382 198.577451,58.7633942 C198.577451,56.4355502 199.881939,54.5485181 201.490965,54.5485181 L238.500934,54.5485181 C238.534995,53.9323295 238.615683,53.2641841 238.74737,52.5349668 C240.166424,44.6698111 240.821218,40.0070133 235.604177,34.3470107 C229.985336,28.2509363 222.488629,25.4768113 215.795342,23.1156056 C203.869169,18.9080217 191.593287,16.7269327 179.392446,15.0147304 C140.01083,9.48781006 98.3058335,-10.3087994 60.7942501,6.94575849 L75.6949543,6.94575849 C77.3039805,6.94575849 78.6084683,8.83297291 78.6084683,11.1608169 C78.6084683,13.1543147 77.6513217,14.8234932 76.3657765,15.2619351 L84.0834193,15.2619351 C85.6926276,15.2619351 86.9969332,17.1489672 86.9969332,19.4768112 C86.9969332,21.8044729 85.6926276,23.691505 84.0834193,23.691505 L47.7193189,23.691505 C45.5944718,25.1140257 43.2692706,26.0494292 40.9859615,26.9361574 C33.858635,29.7037195 24.2052066,30.473773 18.2601519,37.3843832 C12.9119704,43.6007785 17.3150266,51.8744782 20.6695019,58.0195925 L54.1004172,58.0195925 C55.7094433,58.0195925 57.0139312,59.9066246 57.0139312,62.2342863 C57.0139312,64.5621303 55.7094433,66.4491624 54.1004172,66.4491624 L45.950738,66.4491624 C46.5847678,67.2223151 46.987844,68.3790361 46.987844,69.6726676 C46.987844,72.0003293 45.6835383,73.8873614 44.0743301,73.8873614 L27.2755433,73.8873614 C27.5806281,76.6448967 27.1939445,79.4356113 25.6202535,82.1342623 C20.439641,91.01777 10.5295772,92.7168464 3.90167896,98.5586063 C0.163070083,101.853757 -0.552194317,105.006528 0.353224408,107.845553 L47.9295086,107.845553 C49.5387169,107.845553 50.8430226,109.732403 50.8430226,112.060247 C50.8430226,113.580483 50.2865844,114.912216 49.4523825,115.65383 L57.0931621,115.65383 C58.7021883,115.65383 60.0066761,117.540498 60.0066761,119.868524 C60.0066761,122.196186 58.7021883,124.083218 57.0931621,124.083218 L23.460982,124.083218 C41.5955846,131.549127 60.9437872,134.77008 79.4484987,137.182513 C102.328217,140.165012 125.40155,140.545116 148.259411,136.973957 C163.612187,134.575379 178.788652,130.213748 194.181316,128.307391 C209.110981,126.458279 224.084905,126.83419 239.048448,127.272632 C245.127922,127.450926 251.230528,127.744618 257.309456,127.379645 C259.582565,127.243281 264.092355,127.733862 266.045808,125.535819 C269.095199,122.10394 265.557308,118.042746 263.944822,114.53831 C262.95234,112.381832 262.246547,110.268196 261.755679,108.101509" id="Fill-1" opacity="0.1"></path>
                        <path d="M237.915093,14.4579486 L233.474152,14.4579486 L233.474152,10.0128221 C233.474152,8.90131261 232.574015,8 231.46296,8 C230.352452,8 229.451951,8.90131261 229.451951,10.0128221 L229.451951,14.4579486 L225.011009,14.4579486 C223.900319,14.4579486 223,15.3590789 223,16.4707707 C223,17.5824625 223.900319,18.4835928 225.011009,18.4835928 L229.451951,18.4835928 L229.451951,22.9285369 C229.451951,24.0402287 230.352452,24.941359 231.46296,24.941359 C232.574015,24.941359 233.474152,24.0402287 233.474152,22.9285369 L233.474152,18.4835928 L237.915093,18.4835928 C239.025784,18.4835928 239.926103,17.5824625 239.926103,16.4707707 C239.926103,15.3590789 239.025784,14.4579486 237.915093,14.4579486" id="Fill-4"></path>
                        <path d="M49.4875592,93.5322679 L51.6506557,91.3672217 C52.1917941,90.8255956 52.1917941,89.9478002 51.6506557,89.406174 C51.1096995,88.8647302 50.2326946,88.8647302 49.6915562,89.4063564 L47.5284597,91.5714026 L45.3649989,89.4059917 C44.8240426,88.8647302 43.9468556,88.8645479 43.4057172,89.406174 C42.8647609,89.9478002 42.8647609,90.8257779 43.4057172,91.3672217 L45.5689959,93.5324502 L43.4057172,95.6974965 C42.8647609,96.2393049 42.8647609,97.1171003 43.4057172,97.6587264 C43.9468556,98.199988 44.8238605,98.199988 45.3649989,97.6585441 L47.5282775,95.4934979 L49.6915562,97.6587264 C50.2325125,98.199988 51.1096995,98.2001703 51.6506557,97.6587264 C52.1917941,97.1171003 52.1917941,96.2391226 51.6508379,95.6974965 L49.4875592,93.5322679 Z" id="Fill-6"></path>
                        <path d="M230.905218,134.020757 L228.395509,133.125825 L229.289453,130.613671 C229.513121,129.984904 229.185633,129.294153 228.557614,129.070465 C227.929777,128.846413 227.23983,129.174379 227.01598,129.802964 L226.122036,132.315118 L223.611962,131.420186 C222.984125,131.196498 222.294178,131.524099 222.070328,132.152685 C221.84666,132.781088 222.174148,133.471656 222.802349,133.695708 L225.312059,134.590458 L224.418115,137.102794 C224.194264,137.731379 224.521752,138.422131 225.149589,138.646 C225.777609,138.86987 226.467738,138.541904 226.691406,137.913319 L227.58535,135.401165 L230.095605,136.295915 C230.723443,136.519967 231.413572,136.192002 231.63724,135.563781 C231.860726,134.935196 231.533238,134.244627 230.905218,134.020757" id="Fill-8"></path>
                        <path d="M52.2058795,35.4650585 C50.4136203,35.4650585 48.9552241,34.00553 48.9552241,32.2114731 C48.9552241,30.4175985 50.4136203,28.9580701 52.2058795,28.9580701 C53.9983208,28.9580701 55.4565349,30.4175985 55.4565349,32.2114731 C55.4565349,34.00553 53.9983208,35.4650585 52.2058795,35.4650585 M52.2058795,26 C48.7840123,26 46,28.7865217 46,32.2114731 C46,35.6366069 48.7840123,38.4231285 52.2058795,38.4231285 C55.6279287,38.4231285 58.4119411,35.6366069 58.4119411,32.2114731 C58.4119411,28.7865217 55.6279287,26 52.2058795,26" id="Fill-11"></path>
                        <path d="M218.231298,47.453391 C217.00932,47.453391 216.015017,46.4583739 216.015017,45.2351119 C216.015017,44.0118498 217.00932,43.0168328 218.231298,43.0168328 C219.453458,43.0168328 220.447579,44.0118498 220.447579,45.2351119 C220.447579,46.4583739 219.453458,47.453391 218.231298,47.453391 M218.231298,41 C215.898265,41 214,42.8997934 214,45.2351119 C214,47.570248 215.898265,49.4702238 218.231298,49.4702238 C220.564513,49.4702238 222.462596,47.570248 222.462596,45.2351119 C222.462596,42.8997934 220.564513,41 218.231298,41" id="Fill-13"></path>
                        <path d="M32.231298,119.453573 C31.0093197,119.453573 30.0151987,118.458556 30.0151987,117.235294 C30.0151987,116.012214 31.0093197,115.017015 32.231298,115.017015 C33.4534585,115.017015 34.4475794,116.012214 34.4475794,117.235294 C34.4475794,118.458556 33.4534585,119.453573 32.231298,119.453573 M32.231298,113 C29.8982647,113 28,114.899976 28,117.235294 C28,119.57043 29.8982647,121.470406 32.231298,121.470406 C34.5643313,121.470406 36.462596,119.57043 36.462596,117.235294 C36.462596,114.899976 34.5643313,113 32.231298,113" id="Fill-15"></path>
                        <path d="M235.256899,89.4419057 C234.605019,89.4419057 234.074809,88.9112178 234.074809,88.2587506 C234.074809,87.6064658 234.605019,87.0757778 235.256899,87.0757778 C235.908596,87.0757778 236.438806,87.6064658 236.438806,88.2587506 C236.438806,88.9112178 235.908596,89.4419057 235.256899,89.4419057 M235.256899,86 C234.012517,86 233,87.0134298 233,88.2587506 C233,89.5042538 234.012517,90.5175013 235.256899,90.5175013 C236.501098,90.5175013 237.513797,89.5042538 237.513797,88.2587506 C237.513797,87.0134298 236.501098,86 235.256899,86" id="Fill-17"></path>
                        <path d="M38.2568987,67.4419057 C37.6050191,67.4419057 37.0749912,66.9112178 37.0749912,66.2587506 C37.0749912,65.6064658 37.6050191,65.0757778 38.2568987,65.0757778 C38.9087783,65.0757778 39.4389883,65.6064658 39.4389883,66.2587506 C39.4389883,66.9112178 38.9087783,67.4419057 38.2568987,67.4419057 M38.2568987,64 C37.0125171,64 36,65.0134298 36,66.2587506 C36,67.5042538 37.0125171,68.5175013 38.2568987,68.5175013 C39.5012803,68.5175013 40.5137974,67.5042538 40.5137974,66.2587506 C40.5137974,65.0134298 39.5012803,64 38.2568987,64" id="Fill-19"></path>
                    </g>
                </g>
                <g id="Group-48" transform="translate(74.000000, 18.000000)">
                    <path d="M116.234164,11.5004637 L46.7790334,11.5004637 L46.7790334,4.43313152 C46.7790334,2.37799896 45.1033212,0.712107061 43.0360738,0.712107061 L4.4925012,0.712107061 C2.42525377,0.712107061 0.749541549,2.37799896 0.749541549,4.43313152 L0.749541549,15.217131 C0.749541549,15.2185834 0.749541549,15.2200357 0.749541549,15.2214881 L0.749541549,108.450979 C0.749541549,110.50593 2.42525377,112.172003 4.4925012,112.172003 L116.234164,112.172003 C118.301412,112.172003 119.977124,110.50593 119.977124,108.450979 L119.977124,15.2214881 C119.977124,13.1663556 118.301412,11.5004637 116.234164,11.5004637" id="Fill-22" fill="#1E86E3"></path>
                    <path d="M1.44776715,15.2265533 L1.44776715,108.450961 C1.44776715,110.119939 2.81357488,111.477924 4.49239163,111.477924 L116.234237,111.477924 C117.913237,111.477924 119.279044,110.119939 119.279044,108.450961 L119.279044,15.22147 C119.279044,13.5524917 117.913237,12.1945066 116.234237,12.1945066 L46.7791065,12.1945066 C46.3934151,12.1945066 46.0809539,11.8836951 46.0809539,11.5004455 L46.0809539,4.43311336 C46.0809539,2.76413513 44.7149636,1.40615002 43.0361468,1.40615002 L4.49257425,1.40615002 C2.81357488,1.40615002 1.44776715,2.76413513 1.44776715,4.43311336 L1.44776715,15.2171128 L1.44776715,15.2265533 Z M116.234237,112.866046 L4.49239163,112.866046 C2.04365305,112.866046 0.0512794238,110.88553 0.0512794238,108.450961 L0.0512794238,15.22147 L0.0512794238,15.212211 L0.0512794238,4.43311336 C0.0512794238,1.99872534 2.04365305,0.0180277971 4.49257425,0.0180277971 L43.0361468,0.0180277971 C45.485068,0.0180277971 47.4774417,1.99872534 47.4774417,4.43311336 L47.4774417,10.8062029 L116.234237,10.8062029 C118.683158,10.8062029 120.675532,12.7869004 120.675532,15.22147 L120.675532,108.450961 C120.675532,110.88553 118.683158,112.866046 116.234237,112.866046 Z" id="Fill-24" fill="#1E86E3"></path>
                    <path d="M0.749486763,21.098786 L0.749486763,108.450997 C0.749486763,110.505948 2.42519899,112.172021 4.49244641,112.172021 L116.234109,112.172021 C118.301539,112.172021 119.977069,110.505948 119.977069,108.450997 L119.977069,21.098786 L0.749486763,21.098786 Z" id="Fill-26" fill="#FFFFFF"></path>
                    <path d="M1.44776715,21.7929742 L1.44776715,108.450943 C1.44776715,110.120102 2.81357488,111.477906 4.49239163,111.477906 L116.234237,111.477906 C117.913237,111.477906 119.279044,110.120102 119.279044,108.450943 L119.279044,21.7929742 L1.44776715,21.7929742 Z M116.234237,112.86621 L4.49239163,112.86621 C2.04365305,112.86621 0.0512794238,110.885512 0.0512794238,108.450943 L0.0512794238,20.4046704 L120.675532,20.4046704 L120.675532,108.450943 C120.675532,110.885512 118.683158,112.86621 116.234237,112.86621 Z" id="Fill-28" fill="#1E86E3"></path>
                    <path d="M12.7542775,10.199031 L14.2658152,8.69653305 C14.6440192,8.32054546 14.6440192,7.71126764 14.2658152,7.3354616 C13.8879764,6.95965556 13.2751069,6.95965556 12.8969029,7.3354616 L11.3853652,8.83814112 L9.87364486,7.3354616 C9.49562347,6.95965556 8.882754,6.95947401 8.50454999,7.3354616 C8.1265286,7.71126764 8.1265286,8.32072701 8.50454999,8.69653305 L10.0160877,10.1992126 L8.50454999,11.7017105 C8.1265286,12.0778797 8.1265286,12.6871575 8.50454999,13.062782 C8.882754,13.4387696 9.49562347,13.4387696 9.87364486,13.062782 L11.3851826,11.560284 L12.8969029,13.0629635 C13.2749243,13.4387696 13.8877938,13.4387696 14.2658152,13.062782 C14.6440192,12.6869759 14.6440192,12.0776981 14.2659978,11.7017105 L12.7542775,10.199031 Z M11.460239,14.7019862 C8.90722495,14.7019862 6.82993348,12.63705 6.82993348,10.0988161 C6.82993348,7.56058213 8.90722495,5.49546439 11.460239,5.49546439 C14.0134357,5.49546439 16.0907271,7.56058213 16.0907271,10.0988161 C16.0907271,12.63705 14.0134357,14.7019862 11.460239,14.7019862 Z M11.460239,3.744063 C7.93569171,3.744063 5.06820769,6.59474245 5.06820769,10.0988161 C5.06820769,13.6028897 7.93569171,16.4535691 11.460239,16.4535691 C14.9849689,16.4535691 17.8524529,13.6028897 17.8524529,10.0988161 C17.8524529,6.59474245 14.9849689,3.744063 11.460239,3.744063 Z" id="Fill-46" fill="#FFFFFF"></path>
                </g>
                <g id="padlock" transform="translate(113.000000, 51.000000)">
                    <rect id="Rectangle" stroke="#1E86E3" stroke-width="2" fill-rule="nonzero" x="6" y="1" width="30" height="47" rx="15"></rect>
                    <path d="M7.59836389,26.9807501 C16.5267304,19.5888464 29.869057,20.5306953 37.616281,29.1004132 C45.3635049,37.6701311 44.6686243,50.7181594 36.0539585,58.4572189 C27.4387777,66.1957753 14.06812,65.781704 5.97268299,57.5254325 C-2.123269,49.268658 -1.96976675,36.2040267 6.3178054,28.1308924 C6.72783135,27.7304054 7.15434075,27.3470247 7.59836389,26.9807501 Z" id="Shape" stroke="#1E86E3" stroke-width="2" fill="#FFFFFF" fill-rule="nonzero"></path>
                    <g id="Group" transform="translate(18.000000, 37.000000)" fill="#1E86E3" fill-rule="nonzero">
                        <path d="M3.46554684,6.1450195 C1.58265632,6.1450195 0.05632816,4.7822265 0.05632816,3.10107425 C0.05632816,1.41992187 1.58265632,0.05761725 3.46554684,0.05761725 C5.34789066,0.05761725 6.87421868,1.41992188 6.87421868,3.10107425 C6.87421868,4.7822265 5.34789066,6.1450195 3.46554684,6.1450195 Z" id="Shape"></path>
                        <path d="M3.46554684,11.96875 C2.69226566,11.96875 2.06554684,11.4086914 2.06554684,10.71875 L2.06554684,6.24804688 C2.06554684,5.55761725 2.69226566,4.99804688 3.46554684,4.99804688 C4.23882816,4.99804688 4.86554684,5.55761725 4.86554684,6.24804688 L4.86554684,10.71875 C4.86554684,11.4086914 4.23882816,11.96875 3.46554684,11.96875 Z" id="Shape"></path>
                    </g>
                </g>
            </g>
        </g>
    </g>
</svg>